<svg id="Layer_1" data-name="Layer 1" xmlns="http://www.w3.org/2000/svg" viewBox="0 0 1200 607"><defs><style>.cls-1{fill:#fff;}</style></defs><polygon class="cls-1" points="377.9 82.98 377.9 83.5 377.71 83.5 282.9 391.23 181.74 85.86 103.49 85.56 232.85 483.05 328.29 483.05 433.45 151.75 1096.51 151.75 1096.51 82.98 377.9 82.98"/><path class="cls-1" d="M475.81,211.84,397.57,482.61h69.94l8.3-35.32h71.13l8.31,35.32h71.14L548.13,211.84ZM488.86,389.9l22.52-97.13,23.71,97.13Z"/><polygon class="cls-1" points="793.55 297.18 795.92 359 717.68 211.84 651.27 211.84 651.27 482.61 720.05 482.61 720.05 397.26 716.49 335.45 794.74 482.61 862.32 482.61 862.32 211.84 793.55 211.84 793.55 297.18"/><path class="cls-1" d="M1008.16,310.43q-42.7-13.24-42.7-28,0-16.19,23.71-16.18,11.83,0,17.79,5.88,9.48,4.41,10.67,17.65h67.59q-10.68-83.86-93.67-85.34-91.32,3-93.67,86.82,0,63.3,84.19,88.3,41.49,11.79,41.49,28,0,19.14-30.84,19.13-11.85,0-20.14-5.89-8.3-7.35-11.86-22.07H892q10.66,83.88,97.21,88.29,99.6-1.47,102-91.24Q1091.15,335.47,1008.16,310.43Z"/></svg>